<?xml version="1.0" encoding="UTF-8" standalone="no"?>
<svg width="9px" height="15px" viewBox="0 0 9 15" version="1.1" xmlns="http://www.w3.org/2000/svg" xmlns:xlink="http://www.w3.org/1999/xlink">
    <!-- Generator: Sketch 3.8.3 (29802) - http://www.bohemiancoding.com/sketch -->
    <title>Group 26</title>
    <desc>Created with Sketch.</desc>
    <defs>
        <path d="M10.2346196,0.23435007 C10.0891152,0.0892148921 9.88822143,-1.70530257e-13 9.66634111,-1.70530257e-13 L0.804221638,-1.70530257e-13 C0.36042047,-1.70530257e-13 -2.84217094e-13,0.360602355 -2.84217094e-13,0.805427904 C-2.84217094e-13,1.25335469 0.360062292,1.61085581 0.804221638,1.61085581 L8.85970694,1.61085581 L8.85970694,9.66634111 C8.85970694,10.1101423 9.2203093,10.4705627 9.66513484,10.4705627 C10.1130616,10.4705627 10.4705627,10.1105005 10.4705627,9.66634111 L10.4705627,0.804221638 C10.4705627,0.582521552 10.380575,0.381628989 10.2350533,0.236080135 Z" id="path-1"></path>
        <mask id="mask-2" maskContentUnits="userSpaceOnUse" maskUnits="objectBoundingBox" x="0" y="0" width="10.4705627" height="10.4705627" fill="white">
            <use xlink:href="#path-1"></use>
        </mask>
    </defs>
    <g id="Welcome" stroke="none" stroke-width="1" fill="none" fill-rule="evenodd">
        <g id="Desktop-HD-Copy" transform="translate(-1263.000000, -1206.000000)" stroke-width="2" stroke="#FFFFFF" fill="#D8D8D8">
            <g id="Group-16" transform="translate(734.000000, 895.000000)">
                <g id="Group-8" transform="translate(-0.000000, 292.000000)">
                    <g id="Group-29">
                        <g id="Group-26" transform="translate(530.500000, 26.500000) rotate(-315.000000) translate(-530.500000, -26.500000) translate(525.000000, 21.000000)">
                            <use id="Combined-Shape" mask="url(#mask-2)" xlink:href="#path-1"></use>
                        </g>
                    </g>
                </g>
            </g>
        </g>
    </g>
</svg>