<?xml version="1.0" encoding="UTF-8"?>
<svg width="24px" height="24px" viewBox="0 0 24 24" version="1.1" xmlns="http://www.w3.org/2000/svg" xmlns:xlink="http://www.w3.org/1999/xlink">
    <!-- Generator: Sketch 3.8.2 (29753) - http://www.bohemiancoding.com/sketch -->
    <title>clip solid copy 2</title>
    <desc>Created with Sketch.</desc>
    <defs></defs>
    <g id="Welcome" stroke="none" stroke-width="1" fill="none" fill-rule="evenodd">
        <g id="Desktop-HD" transform="translate(-856.000000, -986.000000)" fill="#FFFFFF">
            <g id="Group-16" transform="translate(734.000000, 830.000000)">
                <g id="Group-2">
                    <g id="Group-4">
                        <g id="Group-14" transform="translate(0.000000, 146.000000)">
                            <path d="M137.84326,19.8181818 L134.716639,19.8181818 L131.247649,14.3636364 L134.37427,14.3636364 L137.84326,19.8181818 Z M140.171185,19.8181818 L141.636364,19.8181818 L141.636364,15.8541149 C141.636364,15.0324707 140.961107,14.3636364 140.128136,14.3636364 L136.702195,14.3636364 L140.171185,19.8181818 Z M132.388714,19.8181818 L129.262094,19.8181818 L125.793104,14.3636364 L128.919724,14.3636364 L132.388714,19.8181818 Z M125.272727,13.5454107 L125.272727,12.0062512 C125.272727,10.8982293 126.163352,10 127.278979,10 L143.993749,10 C145.101771,10 146,10.890625 146,12.0062512 L146,28.7210215 C146,29.8290435 145.109375,30.7272727 143.993749,30.7272727 L135.54858,30.7272727 L143.818182,30.7272727 L143.818182,12.1818182 L125.272727,12.1818182 L125.272727,13.5454107 L125.272727,13.5454107 Z M123.465552,14.3642224 C122.652946,14.3865679 122,15.0450618 122,15.8541149 L122,19.8181818 L125.272727,19.8181818 L125.272727,20.4514198 L125.272727,19.8181818 L126.934169,19.8181818 L123.465551,14.3642218 Z M122,22 L141.636364,22 L141.636364,32.5044548 C141.636364,33.3304216 140.960436,34 140.128136,34 L123.508227,34 C122.675256,34 122,33.3204455 122,32.5044548 L122,22 Z M126.363636,25.2727273 L137.272727,25.2727273 L137.272727,27.4545455 L126.363636,27.4545455 L126.363636,25.2727273 Z" id="clip-solid-copy-2"></path>
                        </g>
                    </g>
                </g>
            </g>
        </g>
    </g>
</svg>