<?xml version="1.0" encoding="UTF-8"?>
<svg width="24px" height="24px" viewBox="0 0 24 24" version="1.1" xmlns="http://www.w3.org/2000/svg" xmlns:xlink="http://www.w3.org/1999/xlink">
    <!-- Generator: Sketch 3.8.2 (29753) - http://www.bohemiancoding.com/sketch -->
    <title>_10241</title>
    <desc>Created with Sketch.</desc>
    <defs></defs>
    <g id="Welcome" stroke="none" stroke-width="1" fill="none" fill-rule="evenodd">
        <g id="Desktop-HD" transform="translate(-856.000000, -840.000000)" fill="#FFFFFF">
            <g id="Group-16" transform="translate(734.000000, 830.000000)">
                <g id="Group-2">
                    <g id="Group-4">
                        <g id="Group-13">
                            <g id="FB-fLogo-online" transform="translate(122.000000, 10.000000)">
                                <g id="White">
                                    <g id="_1024">
                                        <path d="M22.6757812,0 L1.32351563,0 C0.5915625,0 7.10542736e-15,0.591087719 7.10542736e-15,1.32138012 L7.10542736e-15,22.6321871 C7.10542736e-15,23.3622456 0.5915625,23.9535906 1.32351563,23.9535906 L12.8196094,23.9535906 L12.8196094,14.6666667 L9.67921875,14.6666667 L9.67921875,11.0637895 L12.8203125,11.0637895 L12.8203125,8.39616374 C12.8203125,5.30210526 14.7121875,3.62608187 17.4775781,3.62608187 C18.8022656,3.62608187 19.9408594,3.71574269 20.2727344,3.75974269 L20.2727344,6.99469006 L18.3546094,6.99410526 C16.850625,6.99410526 16.5696094,7.7074152 16.5696094,8.75412865 L16.5696094,11.0637895 L20.1464062,11.0637895 L19.6792969,14.6666667 L16.5696094,14.6666667 L16.5696094,23.9535906 L22.6757812,23.9535906 C23.4072656,23.9535906 23.9995312,23.3622456 23.9995312,22.6321871 L23.9995312,1.32138012 C23.9995312,0.591087719 23.4072656,0 22.6757812,0 L22.6757812,0 Z" id="_10241"></path>
                                    </g>
                                </g>
                            </g>
                        </g>
                    </g>
                </g>
            </g>
        </g>
    </g>
</svg>