<?xml version="1.0" encoding="UTF-8"?>
<svg width="50px" height="50px" viewBox="0 0 50 50" version="1.1" xmlns="http://www.w3.org/2000/svg" xmlns:xlink="http://www.w3.org/1999/xlink">
    <!-- Generator: Sketch 3.8.2 (29753) - http://www.bohemiancoding.com/sketch -->
    <title>Facebook</title>
    <desc>Created with Sketch.</desc>
    <defs></defs>
    <g id="Welcome" stroke="none" stroke-width="1" fill="none" fill-rule="evenodd">
        <g id="Desktop-HD" transform="translate(-595.000000, -633.000000)">
            <g id="Group-20" transform="translate(222.000000, 103.000000)">
                <g id="Group-7" transform="translate(355.000000, 488.000000)">
                    <g id="Group-6" transform="translate(18.000000, 42.000000)">
                        <g id="Facebook">
                            <rect id="Rectangle-37" fill="#364D88" x="0" y="0" width="50" height="50" rx="2"></rect>
                            <g id="FB-fLogo-online" transform="translate(19.000000, 13.000000)" fill="#FFFFFF">
                                <g id="White">
                                    <g id="_1024">
                                        <path d="M3.95675781,24.9718567 L3.95675781,13.6856644 L0.29296875,13.6856644 L0.29296875,9.3071678 L3.95757812,9.3071678 L3.95757812,6.06526153 C3.95757812,2.30512102 6.16476562,0.268287037 9.39105469,0.268287037 C10.9365234,0.268287037 12.2648828,0.377249838 12.6520703,0.43072206 L12.6520703,4.36208171 L10.4142578,4.36137102 C8.65960937,4.36137102 8.33175781,5.22824074 8.33175781,6.50028834 L8.33175781,9.3071678 L12.5046875,9.3071678 L11.9597266,13.6856644 L8.33175781,13.6856644 L8.33175781,24.9718567 L3.95675781,24.9718567 Z" id="_10241"></path>
                                    </g>
                                </g>
                            </g>
                        </g>
                    </g>
                </g>
            </g>
        </g>
    </g>
</svg>