<?xml version="1.0" encoding="UTF-8" standalone="no"?>
<svg width="7px" height="13px" viewBox="0 0 7 13" version="1.1" xmlns="http://www.w3.org/2000/svg" xmlns:xlink="http://www.w3.org/1999/xlink">
    <!-- Generator: Sketch 3.8.3 (29802) - http://www.bohemiancoding.com/sketch -->
    <title>FB-fLogo-online</title>
    <desc>Created with Sketch.</desc>
    <defs></defs>
    <g id="Welcome" stroke="none" stroke-width="1" fill="none" fill-rule="evenodd">
        <g id="Desktop-HD-Copy" transform="translate(-806.000000, -447.000000)" fill="#FFFFFF">
            <g id="Group-20" transform="translate(222.000000, 103.000000)">
                <g id="Group-11" transform="translate(0.000000, 215.000000)">
                    <g id="Group-9" transform="translate(540.000000, 0.000000)">
                        <g id="Group-22" transform="translate(30.000000, 122.000000)">
                            <g id="Group-21">
                                <g id="Group-25" transform="translate(14.000000, 7.000000)">
                                    <g id="FB-fLogo-online">
                                        <g id="White">
                                            <g id="_1024">
                                                <path d="M1.9728095,12.8458562 L1.9728095,6.97703622 L-1.54987134e-13,6.97703622 L-1.54987134e-13,4.700218 L1.9732512,4.700218 L1.9732512,3.01442674 C1.9732512,1.05915367 3.16173678,-2.66453526e-15 4.89896935,-2.66453526e-15 C5.73114483,-2.66453526e-15 6.44641526,0.0566606563 6.65490084,0.0844662118 L6.65490084,2.12877323 L5.44992488,2.12840367 C4.50511418,2.12840367 4.32857873,2.57917593 4.32857873,3.24064068 L4.32857873,4.700218 L6.57554087,4.700218 L6.28210036,6.97703622 L4.32857873,6.97703622 L4.32857873,12.8458562 L1.9728095,12.8458562 Z" id="_10241"></path>
                                            </g>
                                        </g>
                                    </g>
                                </g>
                            </g>
                        </g>
                    </g>
                </g>
            </g>
        </g>
    </g>
</svg>