<?xml version="1.0" encoding="UTF-8"?>
<svg width="50px" height="50px" viewBox="0 0 50 50" version="1.1" xmlns="http://www.w3.org/2000/svg" xmlns:xlink="http://www.w3.org/1999/xlink">
    <!-- Generator: Sketch 3.8.2 (29753) - http://www.bohemiancoding.com/sketch -->
    <title>G+</title>
    <desc>Created with Sketch.</desc>
    <defs></defs>
    <g id="Welcome" stroke="none" stroke-width="1" fill="none" fill-rule="evenodd">
        <g id="Desktop-HD" transform="translate(-729.000000, -633.000000)">
            <g id="Group-20" transform="translate(222.000000, 103.000000)">
                <g id="Group-7" transform="translate(355.000000, 488.000000)">
                    <g id="Group-6" transform="translate(18.000000, 42.000000)">
                        <g id="G+" transform="translate(134.000000, 0.000000)">
                            <rect id="Rectangle-37" fill="#F24033" x="0" y="0" width="50" height="50" rx="2"></rect>
                            <g id="Page-1" transform="translate(9.000000, 15.000000)" fill="#FFFFFF">
                                <path d="M10.302439,8.15769231 L10.302439,12.2769231 L15.8560976,12.2769231 C14.9707317,14.9423077 13.602439,16.3961538 10.302439,16.3961538 C6.92195122,16.3961538 4.26585366,13.65 4.26585366,10.2576923 C4.26585366,6.86538462 6.92195122,4.11923077 10.302439,4.11923077 C12.0731707,4.11923077 13.2804878,4.76538462 14.3268293,5.65384615 C15.2121951,4.76538462 15.1317073,4.68461538 17.2243902,2.66538462 C15.3731707,0.969230769 12.9585366,0 10.302439,0 C4.58780488,0 0,4.60384615 0,10.3384615 C0,16.0730769 4.58780488,20.6769231 10.302439,20.6769231 C18.8341463,20.6769231 20.9268293,13.2461538 20.202439,8.23846154 L10.302439,8.23846154 L10.302439,8.15769231 Z" id="Fill-1"></path>
                                <polygon id="Fill-2" points="28.895122 8.31923077 28.895122 4.76538462 26.4 4.76538462 26.4 8.31923077 22.697561 8.31923077 22.697561 10.9038462 26.4 10.9038462 26.4 14.6192308 28.895122 14.6192308 28.895122 10.9038462 32.5170732 10.9038462 32.5170732 8.31923077"></polygon>
                            </g>
                        </g>
                    </g>
                </g>
            </g>
        </g>
    </g>
</svg>