<?xml version="1.0" encoding="UTF-8" standalone="no"?>
<svg width="15px" height="9px" viewBox="0 0 15 9" version="1.1" xmlns="http://www.w3.org/2000/svg" xmlns:xlink="http://www.w3.org/1999/xlink">
    <!-- Generator: Sketch 3.8.3 (29802) - http://www.bohemiancoding.com/sketch -->
    <title>Page 1</title>
    <desc>Created with Sketch.</desc>
    <defs></defs>
    <g id="Welcome" stroke="none" stroke-width="1" fill="none" fill-rule="evenodd">
        <g id="Desktop-HD-Copy" transform="translate(-1079.000000, -449.000000)" fill="#FFFFFF">
            <g id="Group-20" transform="translate(222.000000, 103.000000)">
                <g id="Group-11" transform="translate(0.000000, 215.000000)">
                    <g id="Group-9" transform="translate(540.000000, 0.000000)">
                        <g id="Group-22" transform="translate(30.000000, 122.000000)">
                            <g id="Group-21" transform="translate(274.000000, 0.000000)">
                                <g id="Group-23" transform="translate(13.000000, 7.000000)">
                                    <g id="Page-1" transform="translate(0.000000, 2.000000)">
                                        <path d="M4.68292683,3.49615385 L4.68292683,5.26153846 L7.20731707,5.26153846 C6.80487805,6.40384615 6.18292683,7.02692308 4.68292683,7.02692308 C3.14634146,7.02692308 1.93902439,5.85 1.93902439,4.39615385 C1.93902439,2.94230769 3.14634146,1.76538462 4.68292683,1.76538462 C5.48780488,1.76538462 6.03658537,2.04230769 6.51219512,2.42307692 C6.91463415,2.04230769 6.87804878,2.00769231 7.82926829,1.14230769 C6.98780488,0.415384615 5.8902439,0 4.68292683,0 C2.08536585,0 0,1.97307692 0,4.43076923 C0,6.88846154 2.08536585,8.86153846 4.68292683,8.86153846 C8.56097561,8.86153846 9.51219512,5.67692308 9.18292683,3.53076923 L4.68292683,3.53076923 L4.68292683,3.49615385 Z" id="Fill-1"></path>
                                        <polygon id="Fill-2" points="13.1341463 3.56538462 13.1341463 2.04230769 12 2.04230769 12 3.56538462 10.3170732 3.56538462 10.3170732 4.67307692 12 4.67307692 12 6.26538462 13.1341463 6.26538462 13.1341463 4.67307692 14.7804878 4.67307692 14.7804878 3.56538462"></polygon>
                                    </g>
                                </g>
                            </g>
                        </g>
                    </g>
                </g>
            </g>
        </g>
    </g>
</svg>