<?xml version="1.0" encoding="UTF-8" standalone="no"?>
<svg width="10px" height="9px" viewBox="0 0 10 9" version="1.1" xmlns="http://www.w3.org/2000/svg" xmlns:xlink="http://www.w3.org/1999/xlink">
    <!-- Generator: Sketch 3.8.3 (29802) - http://www.bohemiancoding.com/sketch -->
    <title>Page 1</title>
    <desc>Created with Sketch.</desc>
    <defs></defs>
    <g id="Welcome" stroke="none" stroke-width="1" fill="none" fill-rule="evenodd">
        <g id="Desktop-HD-Copy" transform="translate(-943.000000, -449.000000)" fill="#FFFFFF">
            <g id="Group-20" transform="translate(222.000000, 103.000000)">
                <g id="Group-11" transform="translate(0.000000, 215.000000)">
                    <g id="Group-9" transform="translate(540.000000, 0.000000)">
                        <g id="Group-22" transform="translate(30.000000, 122.000000)">
                            <g id="Group-21" transform="translate(137.000000, 0.000000)">
                                <g id="Group-24" transform="translate(14.000000, 7.000000)">
                                    <g id="Page-1" transform="translate(0.000000, 2.000000)">
                                        <polygon id="Fill-1" points="0.27027027 8.89411765 2.21621622 8.89411765 2.21621622 2.85882353 0.27027027 2.85882353"></polygon>
                                        <path d="M7.51351351,2.77941176 C6.40540541,2.77941176 5.7027027,3.36176471 5.56756757,3.78529412 L5.56756757,2.83235294 L3.37837838,2.83235294 C3.40540541,3.33529412 3.37837838,8.86764706 3.37837838,8.86764706 L5.56756757,8.86764706 L5.56756757,5.61176471 C5.56756757,5.42647059 5.56756757,5.24117647 5.62162162,5.10882353 C5.78378378,4.73823529 6.08108108,4.36764706 6.67567568,4.36764706 C7.43243243,4.36764706 7.78378378,4.92352941 7.78378378,5.74411765 L7.78378378,8.86764706 L10,8.86764706 L10,5.53235294 C9.97297297,3.65294118 8.89189189,2.77941176 7.51351351,2.77941176 L7.51351351,2.77941176 Z" id="Fill-2"></path>
                                        <path d="M1.18918919,0 C0.459459459,0 0,0.45 0,1.05882353 C0,1.64117647 0.459459459,2.09117647 1.16216216,2.09117647 L1.18918919,2.09117647 C1.91891892,2.09117647 2.37837838,1.64117647 2.37837838,1.03235294 C2.35135135,0.45 1.91891892,0 1.18918919,0 L1.18918919,0 Z" id="Fill-3"></path>
                                    </g>
                                </g>
                            </g>
                        </g>
                    </g>
                </g>
            </g>
        </g>
    </g>
</svg>