<?xml version="1.0" encoding="UTF-8"?>
<svg width="50px" height="50px" viewBox="0 0 50 50" version="1.1" xmlns="http://www.w3.org/2000/svg" xmlns:xlink="http://www.w3.org/1999/xlink">
    <!-- Generator: Sketch 3.8.2 (29753) - http://www.bohemiancoding.com/sketch -->
    <title>Linked In</title>
    <desc>Created with Sketch.</desc>
    <defs></defs>
    <g id="Welcome" stroke="none" stroke-width="1" fill="none" fill-rule="evenodd">
        <g id="Desktop-HD" transform="translate(-796.000000, -633.000000)">
            <g id="Group-20" transform="translate(222.000000, 103.000000)">
                <g id="Group-7" transform="translate(355.000000, 488.000000)">
                    <g id="Group-6" transform="translate(18.000000, 42.000000)">
                        <g id="Linked-In" transform="translate(201.000000, 0.000000)">
                            <rect id="Rectangle-37" fill="#317BB5" x="0" y="0" width="50" height="50" rx="2"></rect>
                            <g id="Page-1" transform="translate(13.000000, 14.000000)" fill="#FFFFFF">
                                <polygon id="Fill-1" points="0.675675676 22.7294118 5.54054054 22.7294118 5.54054054 7.30588235 0.675675676 7.30588235"></polygon>
                                <path d="M18.7837838,7.10294118 C16.0135135,7.10294118 14.2567568,8.59117647 13.9189189,9.67352941 L13.9189189,7.23823529 L8.44594595,7.23823529 C8.51351351,8.52352941 8.44594595,22.6617647 8.44594595,22.6617647 L13.9189189,22.6617647 L13.9189189,14.3411765 C13.9189189,13.8676471 13.9189189,13.3941176 14.0540541,13.0558824 C14.4594595,12.1088235 15.2027027,11.1617647 16.6891892,11.1617647 C18.5810811,11.1617647 19.4594595,12.5823529 19.4594595,14.6794118 L19.4594595,22.6617647 L25,22.6617647 L25,14.1382353 C24.9324324,9.33529412 22.2297297,7.10294118 18.7837838,7.10294118 L18.7837838,7.10294118 Z" id="Fill-2"></path>
                                <path d="M2.97297297,0 C1.14864865,0 0,1.15 0,2.70588235 C0,4.19411765 1.14864865,5.34411765 2.90540541,5.34411765 L2.97297297,5.34411765 C4.7972973,5.34411765 5.94594595,4.19411765 5.94594595,2.63823529 C5.87837838,1.15 4.7972973,0 2.97297297,0 L2.97297297,0 Z" id="Fill-3"></path>
                            </g>
                        </g>
                    </g>
                </g>
            </g>
        </g>
    </g>
</svg>