<?xml version="1.0" encoding="UTF-8"?>
<svg width="50px" height="50px" viewBox="0 0 50 50" version="1.1" xmlns="http://www.w3.org/2000/svg" xmlns:xlink="http://www.w3.org/1999/xlink">
    <!-- Generator: Sketch 3.8.2 (29753) - http://www.bohemiancoding.com/sketch -->
    <title>Twitter</title>
    <desc>Created with Sketch.</desc>
    <defs></defs>
    <g id="Welcome" stroke="none" stroke-width="1" fill="none" fill-rule="evenodd">
        <g id="Desktop-HD" transform="translate(-662.000000, -633.000000)">
            <g id="Group-20" transform="translate(222.000000, 103.000000)">
                <g id="Group-7" transform="translate(355.000000, 488.000000)">
                    <g id="Group-6" transform="translate(18.000000, 42.000000)">
                        <g id="Twitter" transform="translate(67.000000, 0.000000)">
                            <rect id="Rectangle-37" fill="#518EBA" x="0" y="0" width="50" height="50" rx="2"></rect>
                            <path d="M36.2101911,15.4012739 C35.2070064,16.0031847 34.1369427,16.4713376 32.933121,16.6719745 C31.9968153,15.6687898 30.6592357,15 29.1878981,15 C26.3789809,15 24.0382166,17.3407643 24.0382166,20.2834395 C24.0382166,20.6847134 24.1050955,21.0859873 24.1719745,21.4872611 C19.8917197,21.2866242 16.1464968,19.1464968 13.6050955,16.0031847 C13.1369427,16.8057325 12.9363057,17.6751592 12.9363057,18.6783439 C12.9363057,20.4840764 13.8726115,22.089172 15.2101911,23.0923567 C14.3407643,23.0923567 13.6050955,22.8248408 12.8694268,22.4235669 L12.8694268,22.4904459 C12.8694268,25.0318471 14.6082803,27.1719745 17.0159236,27.6401274 C16.6146497,27.7738854 16.1464968,27.8407643 15.6783439,27.8407643 C15.343949,27.8407643 15.0095541,27.8407643 14.7420382,27.7738854 C15.410828,29.8471338 17.2834395,31.3853503 19.5573248,31.4522293 C17.8184713,32.8566879 15.611465,33.7261146 13.2038217,33.7261146 C12.8025478,33.7261146 12.4012739,33.7261146 12,33.6592357 C14.2738854,35.1305732 16.9490446,36 19.8917197,36 C29.3216561,36 34.5382166,27.9745223 34.5382166,21.0191083 L34.5382166,20.3503185 C35.5414013,19.6146497 36.410828,18.6783439 37.0796178,17.6082803 C36.1433121,18.0095541 35.1401274,18.343949 34.1369427,18.410828 C35.0063694,17.6082803 35.8089172,16.6050955 36.2101911,15.4012739 L36.2101911,15.4012739 Z" id="Page-1" fill="#FFFFFF"></path>
                        </g>
                    </g>
                </g>
            </g>
        </g>
    </g>
</svg>